<svg xmlns="http://www.w3.org/2000/svg" width="240" height="240" viewBox="0 0 240 240"><path fill="#d6c1ea" d="M70 20L120 20L120 45ZM170 20L170 70L145 70ZM170 220L120 220L120 195ZM70 220L70 170L95 170ZM20 70L70 70L70 95ZM220 70L220 120L195 120ZM220 170L170 170L170 145ZM20 170L20 120L45 120Z"/><path fill="#5b5b5b" d="M45 20L70 45L45 70L20 45ZM220 45L195 70L170 45L195 20ZM195 220L170 195L195 170L220 195ZM20 195L45 170L70 195L45 220Z"/><path fill="#ad84d6" d="M70 70L120 70L120 120L70 120ZM102.5 115L115 90L90 90ZM170 70L170 120L120 120L120 70ZM125 102.5L150 115L150 90ZM170 170L120 170L120 120L170 120ZM137.5 125L125 150L150 150ZM70 170L70 120L120 120L120 170ZM115 137.5L90 125L90 150Z"/></svg>