<svg xmlns="http://www.w3.org/2000/svg" width="240" height="240" viewBox="0 0 240 240"><path fill="#8b38a8" d="M70 70L70 20L120 20ZM120 20L170 20L170 70ZM170 170L170 220L120 220ZM120 220L70 220L70 170ZM20 120L20 70L70 70ZM170 70L220 70L220 120ZM220 120L220 170L170 170ZM70 170L20 170L20 120Z"/><path fill="#b975d1" d="M70 70L20 70L20 45ZM170 70L170 20L195 20ZM170 170L220 170L220 195ZM70 170L70 220L45 220ZM86 86L120 86L120 120L86 120ZM154 86L154 120L120 120L120 86ZM154 154L120 154L120 120L154 120ZM86 154L86 120L120 120L120 154Z"/></svg>