<svg xmlns="http://www.w3.org/2000/svg" width="240" height="240" viewBox="0 0 240 240"><path fill="#4c4c4c" d="M78.3 45a16.7,16.7 0 1,1 33.3,0a16.7,16.7 0 1,1 -33.3,0M128.3 45a16.7,16.7 0 1,1 33.3,0a16.7,16.7 0 1,1 -33.3,0M128.3 195a16.7,16.7 0 1,1 33.3,0a16.7,16.7 0 1,1 -33.3,0M78.3 195a16.7,16.7 0 1,1 33.3,0a16.7,16.7 0 1,1 -33.3,0M28.3 95a16.7,16.7 0 1,1 33.3,0a16.7,16.7 0 1,1 -33.3,0M178.3 95a16.7,16.7 0 1,1 33.3,0a16.7,16.7 0 1,1 -33.3,0M178.3 145a16.7,16.7 0 1,1 33.3,0a16.7,16.7 0 1,1 -33.3,0M28.3 145a16.7,16.7 0 1,1 33.3,0a16.7,16.7 0 1,1 -33.3,0"/><path fill="#70cc66" d="M70 70L20 70L20 20ZM170 70L170 20L220 20ZM170 170L220 170L220 220ZM70 170L70 220L20 220ZM88 100.5a12.5,12.5 0 1,1 25,0a12.5,12.5 0 1,1 -25,0M127 100.5a12.5,12.5 0 1,1 25,0a12.5,12.5 0 1,1 -25,0M127 139.5a12.5,12.5 0 1,1 25,0a12.5,12.5 0 1,1 -25,0M88 139.5a12.5,12.5 0 1,1 25,0a12.5,12.5 0 1,1 -25,0"/></svg>