<svg xmlns="http://www.w3.org/2000/svg" width="240" height="240" viewBox="0 0 240 240"><path fill="#e8e8e8" d="M120 70L70 70L70 20ZM120 70L120 20L170 20ZM120 170L170 170L170 220ZM120 170L120 220L70 220ZM70 120L20 120L20 70ZM170 120L170 70L220 70ZM170 120L220 120L220 170ZM70 120L70 170L20 170Z"/><path fill="#d175a0" d="M70 70L20 70L20 20ZM170 70L170 20L220 20ZM170 170L220 170L220 220ZM70 170L70 220L20 220Z"/><path fill="#a8386c" d="M82 82L115 82L115 115L82 115ZM158 82L158 115L125 115L125 82ZM158 158L125 158L125 125L158 125ZM82 158L82 125L115 125L115 158Z"/></svg>