<svg xmlns="http://www.w3.org/2000/svg" width="240" height="240" viewBox="0 0 240 240"><path fill="#a84138" d="M120 45L95 70L70 45L95 20ZM145 70L120 45L145 20L170 45ZM120 195L145 170L170 195L145 220ZM95 170L120 195L95 220L70 195ZM70 95L45 120L20 95L45 70ZM195 120L170 95L195 70L220 95ZM170 145L195 120L220 145L195 170ZM45 120L70 145L45 170L20 145Z"/><path fill="#d17d75" d="M20 20L70 20L70 45ZM220 20L220 70L195 70ZM220 220L170 220L170 195ZM20 220L20 170L45 170ZM70 70L120 70L120 120L70 120ZM88 101a13,13 0 1,0 26,0a13,13 0 1,0 -26,0M170 70L170 120L120 120L120 70ZM126 101a13,13 0 1,0 26,0a13,13 0 1,0 -26,0M170 170L120 170L120 120L170 120ZM126 139a13,13 0 1,0 26,0a13,13 0 1,0 -26,0M70 170L70 120L120 120L120 170ZM88 139a13,13 0 1,0 26,0a13,13 0 1,0 -26,0"/></svg>