<svg xmlns="http://www.w3.org/2000/svg" width="240" height="240" viewBox="0 0 240 240"><path fill="#66cc81" d="M120 20L120 70L70 70ZM170 70L120 70L120 20ZM120 220L120 170L170 170ZM70 170L120 170L120 220ZM70 70L70 120L20 120ZM220 120L170 120L170 70ZM170 170L170 120L220 120ZM20 120L70 120L70 170Z"/><path fill="#4c4c4c" d="M70 70L20 70L20 45ZM170 70L170 20L195 20ZM170 170L220 170L220 195ZM70 170L70 220L45 220Z"/><path fill="#b2e5c0" d="M120 95L120 120L95 120ZM145 120L120 120L120 95ZM120 145L120 120L145 120ZM95 120L120 120L120 145Z"/></svg>