<svg xmlns="http://www.w3.org/2000/svg" width="240" height="240" viewBox="0 0 240 240"><path fill="#4c4c4c" d="M120 70L70 70L70 20ZM120 70L120 20L170 20ZM120 170L170 170L170 220ZM120 170L120 220L70 220ZM70 120L20 120L20 70ZM170 120L170 70L220 70ZM170 120L220 120L220 170ZM70 120L70 170L20 170Z"/><path fill="#66cc95" d="M20 20L70 20L70 70ZM220 20L220 70L170 70ZM220 220L170 220L170 170ZM20 220L20 170L70 170ZM70 70L120 70L120 120L70 120ZM87 113L113 113L113 87L87 87ZM170 70L170 120L120 120L120 70ZM127 87L127 113L153 113L153 87ZM170 170L120 170L120 120L170 120ZM153 127L127 127L127 153L153 153ZM70 170L70 120L120 120L120 170ZM113 153L113 127L87 127L87 153Z"/></svg>