<svg xmlns="http://www.w3.org/2000/svg" width="240" height="240" viewBox="0 0 240 240"><path fill="#e5e5e5" d="M78.3 45a16.7,16.7 0 1,1 33.3,0a16.7,16.7 0 1,1 -33.3,0M128.3 45a16.7,16.7 0 1,1 33.3,0a16.7,16.7 0 1,1 -33.3,0M128.3 195a16.7,16.7 0 1,1 33.3,0a16.7,16.7 0 1,1 -33.3,0M78.3 195a16.7,16.7 0 1,1 33.3,0a16.7,16.7 0 1,1 -33.3,0M28.3 95a16.7,16.7 0 1,1 33.3,0a16.7,16.7 0 1,1 -33.3,0M178.3 95a16.7,16.7 0 1,1 33.3,0a16.7,16.7 0 1,1 -33.3,0M178.3 145a16.7,16.7 0 1,1 33.3,0a16.7,16.7 0 1,1 -33.3,0M28.3 145a16.7,16.7 0 1,1 33.3,0a16.7,16.7 0 1,1 -33.3,0"/><path fill="#66cc89" d="M70 20L70 70L45 70ZM220 70L170 70L170 45ZM170 220L170 170L195 170ZM20 170L70 170L70 195ZM120 95L120 120L95 120ZM145 120L120 120L120 95ZM120 145L120 120L145 120ZM95 120L120 120L120 145Z"/></svg>