<svg xmlns="http://www.w3.org/2000/svg" width="240" height="240" viewBox="0 0 240 240"><path fill="#a3cc66" d="M70 45L95 20L120 45L95 70ZM145 20L170 45L145 70L120 45ZM170 195L145 220L120 195L145 170ZM95 220L70 195L95 170L120 195ZM20 95L45 70L70 95L45 120ZM195 70L220 95L195 120L170 95ZM220 145L195 170L170 145L195 120ZM45 170L20 145L45 120L70 145ZM70 70L120 70L120 105L90 90L105 120L70 120ZM170 70L170 120L135 120L150 90L120 105L120 70ZM170 170L120 170L120 135L150 150L135 120L170 120ZM70 170L70 120L105 120L90 150L120 135L120 170Z"/><path fill="#d1e5b2" d="M20 20L70 20L70 70ZM220 20L220 70L170 70ZM220 220L170 220L170 170ZM20 220L20 170L70 170Z"/></svg>