<svg xmlns="http://www.w3.org/2000/svg" width="240" height="240" viewBox="0 0 240 240"><path fill="#2e658c" d="M70 70L70 20L95 20ZM120 20L170 20L170 45ZM170 170L170 220L145 220ZM120 220L70 220L70 195ZM20 120L20 70L45 70ZM170 70L220 70L220 95ZM220 120L220 170L195 170ZM70 170L20 170L20 145Z"/><path fill="#599ac7" d="M70 20L70 70L20 70ZM220 70L170 70L170 20ZM170 220L170 170L220 170ZM20 170L70 170L70 220ZM120 70L120 110L95 70ZM170 120L130 120L170 95ZM120 170L120 130L145 170ZM70 120L110 120L70 145Z"/></svg>