<svg xmlns="http://www.w3.org/2000/svg" width="240" height="240" viewBox="0 0 240 240"><path fill="#545454" d="M95 70L70 45L95 20L120 45ZM120 45L145 20L170 45L145 70ZM145 170L170 195L145 220L120 195ZM120 195L95 220L70 195L95 170ZM45 120L20 95L45 70L70 95ZM170 95L195 70L220 95L195 120ZM195 120L220 145L195 170L170 145ZM70 145L45 170L20 145L45 120Z"/><path fill="#e8bac4" d="M28.3 45a16.7,16.7 0 1,1 33.3,0a16.7,16.7 0 1,1 -33.3,0M178.3 45a16.7,16.7 0 1,1 33.3,0a16.7,16.7 0 1,1 -33.3,0M178.3 195a16.7,16.7 0 1,1 33.3,0a16.7,16.7 0 1,1 -33.3,0M28.3 195a16.7,16.7 0 1,1 33.3,0a16.7,16.7 0 1,1 -33.3,0"/><path fill="#d1758a" d="M70 70L120 70L120 105L90 90L105 120L70 120ZM170 70L170 120L135 120L150 90L120 105L120 70ZM170 170L120 170L120 135L150 150L135 120L170 120ZM70 170L70 120L105 120L90 150L120 135L120 170Z"/></svg>