<svg xmlns="http://www.w3.org/2000/svg" width="240" height="240" viewBox="0 0 240 240"><path fill="#eaeaea" d="M78.3 45a16.7,16.7 0 1,1 33.3,0a16.7,16.7 0 1,1 -33.3,0M128.3 45a16.7,16.7 0 1,1 33.3,0a16.7,16.7 0 1,1 -33.3,0M128.3 195a16.7,16.7 0 1,1 33.3,0a16.7,16.7 0 1,1 -33.3,0M78.3 195a16.7,16.7 0 1,1 33.3,0a16.7,16.7 0 1,1 -33.3,0M28.3 95a16.7,16.7 0 1,1 33.3,0a16.7,16.7 0 1,1 -33.3,0M178.3 95a16.7,16.7 0 1,1 33.3,0a16.7,16.7 0 1,1 -33.3,0M178.3 145a16.7,16.7 0 1,1 33.3,0a16.7,16.7 0 1,1 -33.3,0M28.3 145a16.7,16.7 0 1,1 33.3,0a16.7,16.7 0 1,1 -33.3,0"/><path fill="#849bd6" d="M45 20L70 45L45 70L20 45ZM220 45L195 70L170 45L195 20ZM195 220L170 195L195 170L220 195ZM20 195L45 170L70 195L45 220Z"/><path fill="#3d5eb7" d="M70 70L120 70L120 105L90 90L105 120L70 120ZM170 70L170 120L135 120L150 90L120 105L120 70ZM170 170L120 170L120 135L150 150L135 120L170 120ZM70 170L70 120L105 120L90 150L120 135L120 170Z"/></svg>