<svg xmlns="http://www.w3.org/2000/svg" width="240" height="240" viewBox="0 0 240 240"><path fill="#3d52b7" d="M70 70L70 20L95 20ZM120 20L170 20L170 45ZM170 170L170 220L145 220ZM120 220L70 220L70 195ZM20 120L20 70L45 70ZM170 70L220 70L220 95ZM220 120L220 170L195 170ZM70 170L20 170L20 145Z"/><path fill="#8492d6" d="M28.3 45a16.7,16.7 0 1,1 33.3,0a16.7,16.7 0 1,1 -33.3,0M178.3 45a16.7,16.7 0 1,1 33.3,0a16.7,16.7 0 1,1 -33.3,0M178.3 195a16.7,16.7 0 1,1 33.3,0a16.7,16.7 0 1,1 -33.3,0M28.3 195a16.7,16.7 0 1,1 33.3,0a16.7,16.7 0 1,1 -33.3,0M70 70L120 70L120 120L70 120ZM87 113L113 113L113 87L87 87ZM170 70L170 120L120 120L120 70ZM127 87L127 113L153 113L153 87ZM170 170L120 170L120 120L170 120ZM153 127L127 127L127 153L153 153ZM70 170L70 120L120 120L120 170ZM113 153L113 127L87 127L87 153Z"/></svg>