<svg xmlns="http://www.w3.org/2000/svg" width="240" height="240" viewBox="0 0 240 240"><path fill="#2e6f8c" d="M78.3 45a16.7,16.7 0 1,1 33.3,0a16.7,16.7 0 1,1 -33.3,0M128.3 45a16.7,16.7 0 1,1 33.3,0a16.7,16.7 0 1,1 -33.3,0M128.3 195a16.7,16.7 0 1,1 33.3,0a16.7,16.7 0 1,1 -33.3,0M78.3 195a16.7,16.7 0 1,1 33.3,0a16.7,16.7 0 1,1 -33.3,0M28.3 95a16.7,16.7 0 1,1 33.3,0a16.7,16.7 0 1,1 -33.3,0M178.3 95a16.7,16.7 0 1,1 33.3,0a16.7,16.7 0 1,1 -33.3,0M178.3 145a16.7,16.7 0 1,1 33.3,0a16.7,16.7 0 1,1 -33.3,0M28.3 145a16.7,16.7 0 1,1 33.3,0a16.7,16.7 0 1,1 -33.3,0"/><path fill="#59a5c7" d="M20 70L20 20L70 20ZM170 20L220 20L220 70ZM220 170L220 220L170 220ZM70 220L20 220L20 170ZM70 70L120 70L120 95L70 95ZM70 95L95 95L95 120L70 120ZM120 95L95 120L95 95ZM170 70L170 120L145 120L145 70ZM145 70L145 95L120 95L120 70ZM145 120L120 95L145 95ZM170 170L120 170L120 145L170 145ZM170 145L145 145L145 120L170 120ZM120 145L145 120L145 145ZM70 170L70 120L95 120L95 170ZM95 170L95 145L120 145L120 170ZM95 120L120 145L95 145Z"/></svg>