<svg xmlns="http://www.w3.org/2000/svg" width="240" height="240" viewBox="0 0 240 240"><path fill="#d17576" d="M70 70L70 20L120 20ZM120 20L170 20L170 70ZM170 170L170 220L120 220ZM120 220L70 220L70 170ZM20 120L20 70L70 70ZM170 70L220 70L220 120ZM220 120L220 170L170 170ZM70 170L20 170L20 120ZM70 70L120 70L120 95L70 95ZM70 95L95 95L95 120L70 120ZM120 95L95 120L95 95ZM170 70L170 120L145 120L145 70ZM145 70L145 95L120 95L120 70ZM145 120L120 95L145 95ZM170 170L120 170L120 145L170 145ZM170 145L145 145L145 120L170 120ZM120 145L145 120L145 145ZM70 170L70 120L95 120L95 170ZM95 170L95 145L120 145L120 170ZM95 120L120 145L95 145Z"/><path fill="#e8e8e8" d="M20 20L70 20L70 70ZM220 20L220 70L170 70ZM220 220L170 220L170 170ZM20 220L20 170L70 170Z"/></svg>