<svg xmlns="http://www.w3.org/2000/svg" width="240" height="240" viewBox="0 0 240 240"><path fill="#e5e5e5" d="M120 20L120 70L70 70ZM170 70L120 70L120 20ZM120 220L120 170L170 170ZM70 170L120 170L120 220ZM70 70L70 120L20 120ZM220 120L170 120L170 70ZM170 170L170 120L220 120ZM20 120L70 120L70 170Z"/><path fill="#a9cc66" d="M70 20L70 70L20 70ZM220 70L170 70L170 20ZM170 220L170 170L220 170ZM20 170L70 170L70 220ZM86 86L120 86L120 120L86 120ZM154 86L154 120L120 120L120 86ZM154 154L120 154L120 120L154 120ZM86 154L86 120L120 120L120 154Z"/></svg>