<svg xmlns="http://www.w3.org/2000/svg" width="240" height="240" viewBox="0 0 240 240"><path fill="#e8e8e8" d="M120 70L70 70L70 45ZM120 70L120 20L145 20ZM120 170L170 170L170 195ZM120 170L120 220L95 220ZM70 120L20 120L20 95ZM170 120L170 70L195 70ZM170 120L220 120L220 145ZM70 120L70 170L45 170Z"/><path fill="#545454" d="M28.3 45a16.7,16.7 0 1,1 33.3,0a16.7,16.7 0 1,1 -33.3,0M178.3 45a16.7,16.7 0 1,1 33.3,0a16.7,16.7 0 1,1 -33.3,0M178.3 195a16.7,16.7 0 1,1 33.3,0a16.7,16.7 0 1,1 -33.3,0M28.3 195a16.7,16.7 0 1,1 33.3,0a16.7,16.7 0 1,1 -33.3,0"/><path fill="#d175b0" d="M120 70L120 110L95 70ZM170 120L130 120L170 95ZM120 170L120 130L145 170ZM70 120L110 120L70 145Z"/></svg>