<svg xmlns="http://www.w3.org/2000/svg" width="240" height="240" viewBox="0 0 240 240"><path fill="#7f9932" d="M78.3 45a16.7,16.7 0 1,1 33.3,0a16.7,16.7 0 1,1 -33.3,0M128.3 45a16.7,16.7 0 1,1 33.3,0a16.7,16.7 0 1,1 -33.3,0M128.3 195a16.7,16.7 0 1,1 33.3,0a16.7,16.7 0 1,1 -33.3,0M78.3 195a16.7,16.7 0 1,1 33.3,0a16.7,16.7 0 1,1 -33.3,0M28.3 95a16.7,16.7 0 1,1 33.3,0a16.7,16.7 0 1,1 -33.3,0M178.3 95a16.7,16.7 0 1,1 33.3,0a16.7,16.7 0 1,1 -33.3,0M178.3 145a16.7,16.7 0 1,1 33.3,0a16.7,16.7 0 1,1 -33.3,0M28.3 145a16.7,16.7 0 1,1 33.3,0a16.7,16.7 0 1,1 -33.3,0"/><path fill="#d8e5b2" d="M20 20L70 20L70 70ZM220 20L220 70L170 70ZM220 220L170 220L170 170ZM20 220L20 170L70 170Z"/><path fill="#b2cc66" d="M120 70L120 110L95 70ZM170 120L130 120L170 95ZM120 170L120 130L145 170ZM70 120L110 120L70 145Z"/></svg>