<svg xmlns="http://www.w3.org/2000/svg" width="240" height="240" viewBox="0 0 240 240"><path fill="#ccb466" d="M70 20L120 20L120 70ZM170 20L170 70L120 70ZM170 220L120 220L120 170ZM70 220L70 170L120 170ZM20 70L70 70L70 120ZM220 70L220 120L170 120ZM220 170L170 170L170 120ZM20 170L20 120L70 120Z"/><path fill="#e5d9b2" d="M20 20L70 20L70 45ZM220 20L220 70L195 70ZM220 220L170 220L170 195ZM20 220L20 170L45 170Z"/><path fill="#998132" d="M70 70L120 70L120 120L70 120ZM102.5 115L115 90L90 90ZM170 70L170 120L120 120L120 70ZM125 102.5L150 115L150 90ZM170 170L120 170L120 120L170 120ZM137.5 125L125 150L150 150ZM70 170L70 120L120 120L120 170ZM115 137.5L90 125L90 150Z"/></svg>