<svg xmlns="http://www.w3.org/2000/svg" width="240" height="240" viewBox="0 0 240 240"><path fill="#5b5b5b" d="M78.3 45a16.7,16.7 0 1,1 33.3,0a16.7,16.7 0 1,1 -33.3,0M128.3 45a16.7,16.7 0 1,1 33.3,0a16.7,16.7 0 1,1 -33.3,0M128.3 195a16.7,16.7 0 1,1 33.3,0a16.7,16.7 0 1,1 -33.3,0M78.3 195a16.7,16.7 0 1,1 33.3,0a16.7,16.7 0 1,1 -33.3,0M28.3 95a16.7,16.7 0 1,1 33.3,0a16.7,16.7 0 1,1 -33.3,0M178.3 95a16.7,16.7 0 1,1 33.3,0a16.7,16.7 0 1,1 -33.3,0M178.3 145a16.7,16.7 0 1,1 33.3,0a16.7,16.7 0 1,1 -33.3,0M28.3 145a16.7,16.7 0 1,1 33.3,0a16.7,16.7 0 1,1 -33.3,0"/><path fill="#cec1ea" d="M28.3 45a16.7,16.7 0 1,1 33.3,0a16.7,16.7 0 1,1 -33.3,0M178.3 45a16.7,16.7 0 1,1 33.3,0a16.7,16.7 0 1,1 -33.3,0M178.3 195a16.7,16.7 0 1,1 33.3,0a16.7,16.7 0 1,1 -33.3,0M28.3 195a16.7,16.7 0 1,1 33.3,0a16.7,16.7 0 1,1 -33.3,0"/><path fill="#9e84d6" d="M90 120a30,30 0 1,1 60,0a30,30 0 1,1 -60,0"/></svg>