<svg xmlns="http://www.w3.org/2000/svg" width="240" height="240" viewBox="0 0 240 240"><path fill="#4c4c4c" d="M78.3 45a16.7,16.7 0 1,1 33.3,0a16.7,16.7 0 1,1 -33.3,0M128.3 45a16.7,16.7 0 1,1 33.3,0a16.7,16.7 0 1,1 -33.3,0M128.3 195a16.7,16.7 0 1,1 33.3,0a16.7,16.7 0 1,1 -33.3,0M78.3 195a16.7,16.7 0 1,1 33.3,0a16.7,16.7 0 1,1 -33.3,0M28.3 95a16.7,16.7 0 1,1 33.3,0a16.7,16.7 0 1,1 -33.3,0M178.3 95a16.7,16.7 0 1,1 33.3,0a16.7,16.7 0 1,1 -33.3,0M178.3 145a16.7,16.7 0 1,1 33.3,0a16.7,16.7 0 1,1 -33.3,0M28.3 145a16.7,16.7 0 1,1 33.3,0a16.7,16.7 0 1,1 -33.3,0"/><path fill="#ccc766" d="M70 20L70 70L45 70ZM220 70L170 70L170 45ZM170 220L170 170L195 170ZM20 170L70 170L70 195Z"/><path fill="#e5e5e5" d="M70 70L120 70L120 120L70 120ZM82.5 101.3L101.3 120L120 101.3L101.3 82.5ZM170 70L170 120L120 120L120 70ZM138.8 82.5L120 101.3L138.8 120L157.5 101.3ZM170 170L120 170L120 120L170 120ZM157.5 138.8L138.8 120L120 138.8L138.8 157.5ZM70 170L70 120L120 120L120 170ZM101.3 157.5L120 138.8L101.3 120L82.5 138.8Z"/></svg>