<svg xmlns="http://www.w3.org/2000/svg" xmlns:xlink="http://www.w3.org/1999/xlink" id="processonSvg1000" viewBox="241.0 660.0 699.0 340.0" width="699.0" height="340.0"><defs id="ProcessOnDefs1001"><marker id="ProcessOnMarker1041" markerUnits="userSpaceOnUse" orient="auto" markerWidth="16.23606797749979" markerHeight="10.550836550532098" viewBox="-1.0 -1.3763819204711736 16.23606797749979 10.550836550532098" refX="-1.0" refY="3.8990363547948754"><path id="ProcessOnPath1042" d="M12.0 3.8990363547948754L0.0 7.798072709589751V0.0Z" stroke="#323232" stroke-width="2.0" fill="#323232" transform="matrix(1.0,0.0,0.0,1.0,0.0,0.0)"/></marker><marker id="ProcessOnMarker1045" markerUnits="userSpaceOnUse" orient="auto" markerWidth="16.23606797749979" markerHeight="10.550836550532098" viewBox="-1.0 -1.3763819204711736 16.23606797749979 10.550836550532098" refX="-1.0" refY="3.8990363547948754"><path id="ProcessOnPath1046" d="M12.0 3.8990363547948754L0.0 7.798072709589751V0.0Z" stroke="#323232" stroke-width="2.0" fill="#323232" transform="matrix(1.0,0.0,0.0,1.0,0.0,0.0)"/></marker><marker id="ProcessOnMarker1049" markerUnits="userSpaceOnUse" orient="auto" markerWidth="16.23606797749979" markerHeight="10.550836550532098" viewBox="-1.0 -1.3763819204711736 16.23606797749979 10.550836550532098" refX="-1.0" refY="3.8990363547948754"><path id="ProcessOnPath1050" d="M12.0 3.8990363547948754L0.0 7.798072709589751V0.0Z" stroke="#323232" stroke-width="2.0" fill="#323232" transform="matrix(1.0,0.0,0.0,1.0,0.0,0.0)"/></marker><marker id="ProcessOnMarker1053" markerUnits="userSpaceOnUse" orient="auto" markerWidth="16.23606797749979" markerHeight="10.550836550532098" viewBox="-1.0 -1.3763819204711736 16.23606797749979 10.550836550532098" refX="-1.0" refY="3.8990363547948754"><path id="ProcessOnPath1054" d="M12.0 3.8990363547948754L0.0 7.798072709589751V0.0Z" stroke="#323232" stroke-width="2.0" fill="#323232" transform="matrix(1.0,0.0,0.0,1.0,0.0,0.0)"/></marker></defs><g id="ProcessOnG1002"><path id="ProcessOnPath1003" d="M241.0 660.0H940.0V1000.0H241.0V660.0Z" fill="none"/><g id="ProcessOnG1004"><g id="ProcessOnG1005" transform="matrix(1.0,0.0,0.0,1.0,261.0,680.0)" opacity="1.0"><path id="ProcessOnPath1006" d="M0.0 0.0L178.0 0.0L178.0 300.0L0.0 300.0Z" stroke="#323232" stroke-width="2.0" stroke-dasharray="none" opacity="1.0" fill="#ffffff"/><g id="ProcessOnG1007" transform="matrix(1.0,0.0,0.0,1.0,10.0,100.0)"><text id="ProcessOnText1008" fill="#000000" font-size="16" x="78.0" y="16.4" font-family="微软雅黑" font-weight="normal" font-style="normal" text-decoration="none" family="微软雅黑" text-anchor="middle" size="16">全局作用域</text><text id="ProcessOnText1009" fill="#000000" font-size="16" x="78.0" y="36.4" font-family="微软雅黑" font-weight="normal" font-style="normal" text-decoration="none" family="微软雅黑" text-anchor="middle" size="16"></text><text id="ProcessOnText1010" fill="#000000" font-size="16" x="78.0" y="56.4" font-family="微软雅黑" font-weight="normal" font-style="normal" text-decoration="none" family="微软雅黑" text-anchor="middle" size="16">变量 outer</text><text id="ProcessOnText1011" fill="#000000" font-size="16" x="78.0" y="76.4" font-family="微软雅黑" font-weight="normal" font-style="normal" text-decoration="none" family="微软雅黑" text-anchor="middle" size="16">函数 a</text><text id="ProcessOnText1012" fill="#000000" font-size="16" x="78.0" y="96.4" font-family="微软雅黑" font-weight="normal" font-style="normal" text-decoration="none" family="微软雅黑" text-anchor="middle" size="16">函数 b</text></g></g><g id="ProcessOnG1013" transform="matrix(1.0,0.0,0.0,1.0,742.0,680.0)" opacity="1.0"><path id="ProcessOnPath1014" d="M0.0 0.0L178.0 0.0L178.0 121.0L0.0 121.0Z" stroke="#323232" stroke-width="2.0" stroke-dasharray="none" opacity="1.0" fill="#ffffff"/><g id="ProcessOnG1015" transform="matrix(1.0,0.0,0.0,1.0,10.0,30.5)"><text id="ProcessOnText1016" fill="#000000" font-size="16" x="78.0" y="16.4" font-family="微软雅黑" font-weight="normal" font-style="normal" text-decoration="none" family="微软雅黑" text-anchor="middle" size="16">作用域 b</text><text id="ProcessOnText1017" fill="#000000" font-size="16" x="78.0" y="36.4" font-family="微软雅黑" font-weight="normal" font-style="normal" text-decoration="none" family="微软雅黑" text-anchor="middle" size="16"></text><text id="ProcessOnText1018" fill="#000000" font-size="16" x="78.0" y="56.4" font-family="微软雅黑" font-weight="normal" font-style="normal" text-decoration="none" family="微软雅黑" text-anchor="middle" size="16">变量 inner_inner</text></g></g><g id="ProcessOnG1019" transform="matrix(1.0,0.0,0.0,1.0,500.0,680.0)" opacity="1.0"><path id="ProcessOnPath1020" d="M0.0 0.0L179.0 0.0L179.0 121.0L0.0 121.0Z" stroke="#323232" stroke-width="2.0" stroke-dasharray="none" opacity="1.0" fill="#ffffff"/><g id="ProcessOnG1021" transform="matrix(1.0,0.0,0.0,1.0,10.0,20.5)"><text id="ProcessOnText1022" fill="#000000" font-size="16" x="78.5" y="16.4" font-family="微软雅黑" font-weight="normal" font-style="normal" text-decoration="none" family="微软雅黑" text-anchor="middle" size="16">作用域 a</text><text id="ProcessOnText1023" fill="#000000" font-size="16" x="78.5" y="36.4" font-family="微软雅黑" font-weight="normal" font-style="normal" text-decoration="none" family="微软雅黑" text-anchor="middle" size="16"></text><text id="ProcessOnText1024" fill="#000000" font-size="16" x="78.5" y="56.4" font-family="微软雅黑" font-weight="normal" font-style="normal" text-decoration="none" family="微软雅黑" text-anchor="middle" size="16">函数 b</text><text id="ProcessOnText1025" fill="#000000" font-size="16" x="78.5" y="76.4" font-family="微软雅黑" font-weight="normal" font-style="normal" text-decoration="none" family="微软雅黑" text-anchor="middle" size="16">变量 inner</text></g></g><g id="ProcessOnG1026" transform="matrix(1.0,0.0,0.0,1.0,500.0,861.0)" opacity="1.0"><path id="ProcessOnPath1027" d="M0.0 0.0L179.0 0.0L179.0 119.0L0.0 119.0Z" stroke="#323232" stroke-width="2.0" stroke-dasharray="none" opacity="1.0" fill="#ffffff"/><g id="ProcessOnG1028" transform="matrix(1.0,0.0,0.0,1.0,10.0,19.5)"><text id="ProcessOnText1029" fill="#000000" font-size="16" x="78.5" y="16.4" font-family="微软雅黑" font-weight="normal" font-style="normal" text-decoration="none" family="微软雅黑" text-anchor="middle" size="16">作用域 c</text><text id="ProcessOnText1030" fill="#000000" font-size="16" x="78.5" y="36.4" font-family="微软雅黑" font-weight="normal" font-style="normal" text-decoration="none" family="微软雅黑" text-anchor="middle" size="16"></text><text id="ProcessOnText1031" fill="#000000" font-size="16" x="78.5" y="56.4" font-family="微软雅黑" font-weight="normal" font-style="normal" text-decoration="none" family="微软雅黑" text-anchor="middle" size="16">变量 hello</text><text id="ProcessOnText1032" fill="#000000" font-size="16" x="78.5" y="76.4" font-family="微软雅黑" font-weight="normal" font-style="normal" text-decoration="none" family="微软雅黑" text-anchor="middle" size="16">函数 d</text></g></g><g id="ProcessOnG1033" transform="matrix(1.0,0.0,0.0,1.0,742.0,861.0)" opacity="1.0"><path id="ProcessOnPath1034" d="M0.0 0.0L178.0 0.0L178.0 119.0L0.0 119.0Z" stroke="#323232" stroke-width="2.0" stroke-dasharray="none" opacity="1.0" fill="#ffffff"/><g id="ProcessOnG1035" transform="matrix(1.0,0.0,0.0,1.0,10.0,29.5)"><text id="ProcessOnText1036" fill="#000000" font-size="16" x="78.0" y="16.4" font-family="微软雅黑" font-weight="normal" font-style="normal" text-decoration="none" family="微软雅黑" text-anchor="middle" size="16">作用域 d</text><text id="ProcessOnText1037" fill="#000000" font-size="16" x="78.0" y="36.4" font-family="微软雅黑" font-weight="normal" font-style="normal" text-decoration="none" family="微软雅黑" text-anchor="middle" size="16"></text><text id="ProcessOnText1038" fill="#000000" font-size="16" x="78.0" y="56.4" font-family="微软雅黑" font-weight="normal" font-style="normal" text-decoration="none" family="微软雅黑" text-anchor="middle" size="16">变量 star</text></g></g><g id="ProcessOnG1039"><path id="ProcessOnPath1040" d="M500.0 740.5L469.5 740.5L469.5 741.0L454.2360679774998 741.0" stroke="#323232" stroke-width="2.0" stroke-dasharray="none" fill="none" marker-end="url(#ProcessOnMarker1041)"/></g><g id="ProcessOnG1043"><path id="ProcessOnPath1044" d="M500.0 920.5L469.5 920.5L469.5 921.0L454.2360679774998 921.0" stroke="#323232" stroke-width="2.0" stroke-dasharray="none" fill="none" marker-end="url(#ProcessOnMarker1045)"/></g><g id="ProcessOnG1047"><path id="ProcessOnPath1048" d="M742.0 920.5L710.5 920.5L710.5 920.5L694.2360679774998 920.5" stroke="#323232" stroke-width="2.0" stroke-dasharray="none" fill="none" marker-end="url(#ProcessOnMarker1049)"/></g><g id="ProcessOnG1051"><path id="ProcessOnPath1052" d="M742.0 740.5L710.5 740.5L710.5 740.5L694.2360679774998 740.5" stroke="#323232" stroke-width="2.0" stroke-dasharray="none" fill="none" marker-end="url(#ProcessOnMarker1053)"/></g></g></g></svg>